<?xml version="1.0" encoding="utf-8"?>
<!-- Generator: Adobe Illustrator 16.0.0, SVG Export Plug-In . SVG Version: 6.00 Build 0)  -->
<!DOCTYPE svg PUBLIC "-//W3C//DTD SVG 1.1//EN" "http://www.w3.org/Graphics/SVG/1.1/DTD/svg11.dtd">
<svg version="1.1" id="Layer_1" xmlns="http://www.w3.org/2000/svg" xmlns:xlink="http://www.w3.org/1999/xlink" x="0px" y="0px"
	 width="142.678px" height="162.667px" viewBox="0 0 142.678 162.667" enable-background="new 0 0 142.678 162.667"
	 xml:space="preserve">
<g>
	<path fill="#FFFFFF" d="M39.109,94.186c-18.731-2.489-27.98-21.934-29.05-39.127c-1.065-16.127,4.508-36.402,20.395-44.348
		C36.382,7.867,43.616,6.443,49.9,9.052c8.063,3.438,12.449,10.314,14.704,18.497c2.371,8.419-10.909,12.213-13.399,3.557
		c-0.592-2.133-1.779-5.334-2.847-6.521c-1.66-1.897-2.252-2.372-3.913-2.846c-0.237,0-1.542-0.236-1.066-0.236H42.43
		c-0.119,0-1.422,0.118-1.302,0l-0.951,0.236c-2.371,0.593-2.963,0.831-5.336,2.609c-9.01,6.166-12.094,20.276-10.909,31.778
		c0.949,9.484,6.286,24.425,18.143,24.307c4.505,0,9.25-2.133,11.738-6.403c0.355-0.83,0.592-1.66,0.833-2.371
		c-1.662,0.354-3.44,0.593-5.101,0.948c-3.676,0.711-7.352-0.948-8.417-4.742c-1.069-3.44,1.183-7.944,4.741-8.656
		c4.624-0.83,9.367-1.542,14.111-2.372c4.505-0.948,8.418,1.779,8.773,6.64c0,0.474,0,0.948,0.119,1.422
		c0.474,7.708-1.423,15.178-6.997,20.87C56.065,91.935,47.647,95.253,39.109,94.186 M58.555,95.491
		c0.239,0.475,0.12,1.068-0.474,1.305c-3.319,1.66-6.284,2.37-6.403,2.37l-0.118,0.12c-0.474,0-0.948-0.356-1.068-1.068
		c-0.119-0.474,0.238-1.066,0.833-1.187c0.117,0,2.725-0.473,5.808-2.014C57.726,94.779,58.319,95.018,58.555,95.491 M60.809,82.449
		c0.592-0.831,1.186-1.661,1.66-2.491c0.474-0.83,0.948-1.778,1.305-2.726c0.711-2.018,1.185-4.033,1.659-5.929
		c0.237-2.017,0.355-3.678,0.237-5.218c0-1.661-0.237-2.845-0.474-3.794c-0.119-0.355-0.237-0.948-0.355-1.186
		c0-0.118,0-0.236-0.119-0.236v-0.12c-0.118-0.354-0.592-0.473-0.948-0.354c-0.357,0.119-0.474,0.593-0.357,0.949l0.237,0.354
		c0,0.238,0.12,0.476,0.24,0.949c0.235,0.712,0.354,1.897,0.472,3.438c0.119,1.541,0.119,3.201,0,5.099
		c-0.237,1.896-0.592,3.913-1.305,5.809c-0.237,0.949-0.712,1.899-1.066,2.727c-0.476,0.831-0.949,1.661-1.542,2.491
		c-0.119,0.355-0.355,0.711-0.712,1.067l-0.828,1.068c-0.359,0.354-0.594,0.593-0.951,0.948c-0.237,0.236-0.592,0.355-0.83,0.593
		c-0.594,0.71-1.186,1.067-1.66,1.421l-1.305,0.949c0.477-0.236,0.831-0.474,1.305-0.83c0.592-0.355,1.188-0.711,1.779-1.305
		l0.948-0.711c0.24-0.237,0.594-0.473,0.95-0.831c0.237-0.355,0.592-0.712,0.949-1.067L60.809,82.449z M72.429,80.314
		c-1.542,5.809-5.1,10.67-10.434,14.229c-0.12,0.118-0.355,0.118-0.594,0.118c-0.237,0-0.592-0.118-0.83-0.357
		c-0.237-0.473-0.118-1.186,0.237-1.54c4.979-3.202,8.181-7.589,9.604-12.807c0.237-0.592,0.83-0.949,1.185-0.71
		C72.192,79.366,72.547,79.958,72.429,80.314"/>
	<path fill="#FFFFFF" d="M132.882,51.62c-0.119,9.484-1.779,18.971-6.286,27.272c-3.556,6.638-9.723,13.042-17.312,14.939
		c-7.826,2.134-15.531,0-21.58-5.098c-14.347-11.74-16.244-35.455-12.212-52.411c3.557-14.939,16.125-32.37,33.792-27.508
		C127.309,13.914,132.882,35.256,132.882,51.62 M112.843,72.963c3.677-6.405,4.98-13.755,5.099-21.344
		c0-7.115-0.948-15.058-4.742-21.344c-0.949-1.542-1.305-2.134-2.371-3.32c-0.594-0.591-1.068-1.185-1.78-1.659l-0.354-0.356
		c-0.712-0.356-1.186-0.711-1.778-1.068c-0.12-0.119-0.239-0.236-0.357-0.236c-0.117,0-0.237-0.119-0.476-0.119
		c-0.235,0-1.896-0.356-1.301-0.356h-1.068c-3.559,0-7.115,2.253-9.843,6.878c-3.674,6.284-5.097,13.873-5.097,21.225
		c0,7.351,0.948,15.058,4.744,21.342c0.948,1.541,1.303,2.253,2.37,3.439c0.594,0.593,1.068,1.306,1.778,1.66l0.237,0.236
		c0.712,0.357,1.306,0.831,1.898,1.186l0.354,0.238c0.12,0,0.239,0,0.476,0.119c0.237,0,2.016,0.236,1.423,0.236
		c0.355,0.12,0.71,0.12,1.068,0.12C106.559,79.72,110.116,77.587,112.843,72.963 M129.917,54.347v-2.372
		c-0.117-1.303-0.117-2.135-0.117-2.135v2.135c0,0.712,0,1.541-0.118,2.372c0,0.948-0.12,2.015-0.239,3.201
		c0,0.712-0.119,1.305-0.237,1.897c-0.119,0.711-0.119,1.304-0.357,2.016l-0.354,1.897c-0.239,0.711-0.355,1.304-0.592,2.016
		c-0.12,0.711-0.355,1.423-0.594,2.135l-0.712,2.135c-0.355,0.593-0.591,1.303-0.948,2.015c-0.355,0.711-0.592,1.421-0.948,2.134
		c-0.829,1.305-1.423,2.727-2.373,3.913c-0.83,1.187-1.777,2.37-2.845,3.44c-2.016,2.133-4.149,3.794-5.928,4.86
		c-1.897,1.303-3.676,2.016-4.861,2.49c-0.594,0.238-1.069,0.355-1.186,0.355c-0.119,0.119-0.474,0.119-0.474,0.119
		c-0.592,0-1.068,0.592-1.068,1.186c0.117,0.593,0.592,1.068,1.303,1.068l0.476-0.12c0.474-0.119,1.066-0.354,1.779-0.593
		c1.305-0.473,3.082-1.421,5.099-2.846c1.897-1.422,4.03-3.201,6.045-5.453c1.068-1.185,1.898-2.491,2.728-3.794
		c0.829-1.186,1.542-2.726,2.252-4.151c0.357-0.709,0.592-1.421,0.948-2.133c0.357-0.711,0.594-1.542,0.831-2.252
		c0.237-0.594,0.476-1.304,0.712-2.135c0.117-0.711,0.355-1.423,0.474-2.134c0.235-0.711,0.355-1.422,0.474-2.134l0.355-2.016
		c0.119-0.593,0.119-1.305,0.239-1.897c0-0.594,0.118-1.303,0.118-2.016C129.8,56.362,129.917,55.295,129.917,54.347"/>
	<path fill="#FFFFFF" d="M22.589,113.005c0.091,0.093,0.114,0.217,0.068,0.376c-0.045,0.162-0.136,0.24-0.273,0.24h-1.405
		c-0.433,0-0.855,0.045-1.266,0.137c-2.921,0.319-4.725,1.986-5.409,4.998c-0.229,1.142-0.343,2.271-0.343,3.39
		c0,1.119,0.068,2.249,0.206,3.39c0.091,0.821,0.228,1.598,0.411,2.327c0.273,1.325,1.026,2.009,2.259,2.055
		c1.597,0.183,2.898,1.026,3.903,2.533c0.549,0.731,0.455,1.325-0.274,1.78c-0.32,0.184-0.649,0.308-0.992,0.376
		c-0.342,0.068-0.675,0.148-0.995,0.239c-0.182,0.093-0.354,0.127-0.513,0.103c-0.161-0.022-0.331-0.01-0.513,0.034
		c-1.097,0.229-1.884,0.593-2.363,1.096c-0.479,0.502-0.765,1.347-0.855,2.533c-0.045,0.367-0.068,0.753-0.068,1.164v1.233
		c0.044,1.506,0.08,3.024,0.103,4.553c0.022,1.529,0.034,3.047,0.034,4.553c0,0.914-0.114,1.895-0.343,2.944
		c-0.092,0.365-0.25,0.719-0.479,1.061c-0.229,0.342-0.526,0.559-0.891,0.65c-0.458,0.091-0.833-0.034-1.129-0.376
		c-0.297-0.342-0.515-0.696-0.649-1.061c-0.23-0.593-0.412-1.187-0.548-1.781c-0.138-0.592-0.274-1.209-0.411-1.848
		c-0.047-0.228-0.059-0.434-0.034-0.616c0.023-0.182,0.034-0.387,0.034-0.617c0-5.797-0.011-11.548-0.034-17.254
		c-0.024-5.706-0.036-11.457-0.036-17.255c0-1.141,0.161-1.952,0.48-2.43c0.318-0.48,1.003-0.878,2.053-1.199
		C16.155,109.332,19.577,110.222,22.589,113.005"/>
	<path fill="#FFFFFF" d="M45.321,149.843c0.502,0.639,0.765,1.164,0.787,1.574c0.023,0.411-0.149,0.867-0.514,1.37
		c-0.456,0.503-1.014,0.856-1.678,1.061c-0.661,0.206-1.29,0.125-1.881-0.239c-0.821-0.548-1.485-1.165-1.986-1.849
		c-0.32-0.502-0.605-1.027-0.857-1.574c-0.25-0.548-0.49-1.118-0.717-1.712c-0.64-1.734-1.291-3.458-1.951-5.169
		c-0.664-1.712-1.336-3.434-2.021-5.169c-0.093-0.182-0.265-0.309-0.515-0.377c-0.251-0.068-0.513-0.103-0.787-0.103
		c-0.272,0-0.537,0.034-0.787,0.103c-0.251,0.069-0.401,0.195-0.445,0.377c-0.367,0.914-0.641,1.814-0.823,2.704
		c-0.182,0.89-0.32,1.792-0.411,2.706c-0.274,2.647-0.161,5.364,0.344,8.147c0.135,0.958,0.011,1.701-0.374,2.225
		c-0.383,0.524-0.879,0.856-1.488,0.993c-0.609,0.137-1.251,0.091-1.927-0.137c-0.678-0.229-1.263-0.639-1.759-1.232
		c-1.231-1.369-1.712-3.058-1.438-5.067c0.73-5.522,1.186-11.035,1.368-16.536c0.182-5.499,0.229-11.034,0.138-16.604v-4.655
		c1.71-0.502,3.269-0.73,4.674-0.686c1.402,0.046,2.972,0.366,4.707,0.958c2.785,1.096,4.931,2.671,6.437,4.725
		c1.506,2.055,2.43,4.257,2.772,6.608c0.344,2.35,0.172,4.679-0.513,6.983c-0.685,2.305-1.779,4.234-3.287,5.787
		c-0.274,0.273-0.479,0.457-0.617,0.547v0.069c0.091,2.557,0.64,5.01,1.644,7.361C42.423,145.382,43.723,147.651,45.321,149.843
		 M35.941,116.086c-0.183-0.411-0.444-0.695-0.787-0.856c-0.342-0.159-0.719-0.25-1.129-0.274c-0.412-0.022-0.823-0.01-1.233,0.035
		c-0.412,0.046-0.798,0.068-1.165,0.068c-0.137,2.603-0.273,5.147-0.411,7.635c-0.135,2.488-0.273,5.01-0.411,7.566
		c0.23,0.503,0.776,0.958,1.644,1.369c0.865,0.412,1.803,0.754,2.808,1.027c0.182-0.091,0.331-0.159,0.444-0.205
		c0.112-0.045,0.216-0.114,0.309-0.205c0.412-0.593,0.683-1.483,0.823-2.671c0.136-1.186,0.214-2.431,0.239-3.732
		c0.022-1.3,0-2.567-0.07-3.8c-0.066-1.232-0.101-2.236-0.101-3.013c0-0.501-0.104-0.992-0.309-1.471
		C36.386,117.079,36.168,116.589,35.941,116.086"/>
	<path fill="#FFFFFF" d="M53.262,133.821c0.091,2.922,0.148,5.843,0.172,8.764c0.022,2.922,0.057,5.844,0.102,8.765
		c0,1.506-0.685,2.054-2.055,1.644c-1.46-0.412-2.327-1.324-2.602-2.74c-0.367-1.643-0.571-3.286-0.615-4.929
		c-0.229-3.332-0.378-6.653-0.446-9.963c-0.068-3.309-0.034-6.629,0.104-9.962c0.091-1.644,0.18-3.287,0.273-4.93
		c0.091-1.644,0.229-3.287,0.411-4.93c0.092-0.912,0.365-1.803,0.823-2.671c0.501-0.913,1.164-1.345,1.985-1.301
		c0.823,0.046,1.46,0.525,1.918,1.438c0.364,0.64,0.581,1.278,0.649,1.917c0.068,0.64,0.078,1.301,0.034,1.985
		c-0.091,2.284-0.182,4.543-0.273,6.779c-0.094,2.237-0.185,4.497-0.274,6.779v3.355H53.262z"/>
	<path fill="#FFFFFF" d="M65.587,149.98c1.095,0.091,1.996,0.183,2.705,0.273c0.706,0.092,1.3,0.24,1.779,0.446
		c0.48,0.205,0.891,0.479,1.233,0.821c0.342,0.342,0.719,0.787,1.131,1.334c0.316,0.366,0.066,0.685-0.755,0.959
		c-0.821,0.273-1.882,0.467-3.184,0.582c-1.3,0.114-2.648,0.136-4.04,0.068c-1.392-0.068-2.454-0.239-3.184-0.513
		c-0.548-0.184-0.959-0.514-1.231-0.994c-0.274-0.479-0.469-0.993-0.583-1.541c-0.113-0.547-0.17-1.072-0.17-1.574
		c0-0.502-0.024-0.89-0.07-1.165c-0.092-4.701-0.204-9.368-0.341-14.002c-0.138-4.633-0.276-9.299-0.41-14.002
		c-0.047-1.095-0.068-2.202-0.068-3.321c0-1.118-0.026-2.248-0.07-3.389c0-0.501,0.044-0.97,0.138-1.403
		c0.089-0.433,0.248-0.856,0.479-1.267c0.272-0.366,0.536-0.616,0.787-0.754c0.25-0.136,0.604-0.09,1.062,0.138
		c0.547,0.272,1.289,0.445,2.225,0.513c0.935,0.068,1.701,0.081,2.293,0.034c0.594,0,1.177-0.011,1.746-0.034
		c0.571-0.022,1.154-0.01,1.745,0.034c0.687,0.046,1.326,0.195,1.92,0.445c0.591,0.252,1.071,0.674,1.437,1.267
		c0.365,0.594,0.456,1.118,0.276,1.574c-0.185,0.457-0.641,0.685-1.372,0.685c-0.365,0.046-0.719,0.024-1.061-0.068
		c-0.343-0.091-0.696-0.16-1.06-0.206c-0.23-0.091-0.469-0.16-0.721-0.206c-0.25-0.044-0.49-0.067-0.719-0.067
		c-0.914-0.092-1.551,0.045-1.917,0.41c-0.365,0.367-0.571,1.005-0.617,1.917c0,0.503,0.011,1.005,0.034,1.506
		c0.022,0.503,0.057,1.005,0.104,1.506c0.091,1.736,0.159,3.448,0.205,5.136c0.045,1.689,0.114,3.379,0.206,5.067
		c0.045,0.64,0.148,1.062,0.307,1.267c0.161,0.204,0.537,0.4,1.131,0.582c0.272,0.092,0.547,0.137,0.821,0.137
		c0.274,0,0.526,0.023,0.754,0.068c0.638,0.046,1.255,0.137,1.849,0.274c0.272,0.091,0.511,0.217,0.719,0.376
		c0.205,0.161,0.33,0.423,0.375,0.787c0.182,0.732-0.045,1.21-0.685,1.438c-0.365,0.183-0.696,0.286-0.992,0.309
		c-0.297,0.023-0.651,0.102-1.063,0.239c-0.229,0.046-0.443,0.068-0.649,0.068s-0.422,0.024-0.651,0.068
		c-0.594,0.138-1.037,0.424-1.334,0.856c-0.298,0.435-0.469,0.948-0.514,1.541c-0.045,1.963-0.059,3.915-0.033,5.855
		C65.575,145.999,65.587,147.972,65.587,149.98"/>
	<path fill="#FFFFFF" d="M87.085,129.096c0.685-2.235,1.073-4.474,1.164-6.71s0.023-4.519-0.206-6.847
		c-0.045-0.502-0.066-0.993-0.066-1.472c0-0.479,0.043-0.947,0.136-1.404c0.045-0.273,0.136-0.536,0.274-0.787
		c0.138-0.25,0.295-0.49,0.48-0.72c0.636-0.729,1.357-1.049,2.157-0.958c0.797,0.093,1.379,0.594,1.745,1.507
		c0.318,0.777,0.479,1.667,0.479,2.67c0,1.096-0.034,2.203-0.102,3.321c-0.068,1.119-0.149,2.225-0.24,3.321
		c-0.365,4.976-0.708,9.894-1.026,14.754c-0.321,4.861-0.662,9.757-1.027,14.688c-0.047,0.411-0.081,0.812-0.104,1.198
		c-0.023,0.389-0.057,0.787-0.103,1.198c-0.091,0.685-0.342,1.165-0.754,1.438c-0.409,0.274-0.935,0.296-1.574,0.068
		c-0.867-0.365-1.574-0.912-2.123-1.643c-0.638-0.776-1.071-1.654-1.3-2.636c-0.227-0.981-0.388-1.974-0.48-2.978
		c-0.135-1.324-0.25-2.659-0.342-4.005c-0.091-1.346-0.205-2.682-0.341-4.006c-0.047-0.411-0.184-1.255-0.411-2.533
		c-0.229-1.277-0.503-2.636-0.823-4.074c-0.32-1.438-0.649-2.774-0.993-4.006c-0.343-1.233-0.649-1.986-0.923-2.259
		c-0.091-0.092-0.205-0.171-0.343-0.24c-0.136-0.069-0.32-0.194-0.548-0.376c-0.044,0.457-0.066,0.834-0.066,1.129v0.925
		c-0.045,1.232-0.082,2.934-0.104,5.101c-0.023,2.168-0.045,4.428-0.068,6.779c-0.024,2.351-0.045,4.61-0.068,6.778
		c-0.024,2.168-0.036,3.869-0.036,5.102c-0.044,0.958-0.203,1.655-0.479,2.088c-0.274,0.434-0.753,0.719-1.438,0.855
		c-0.776,0.183-1.3,0.113-1.574-0.206s-0.594-0.866-0.958-1.643c-0.367-0.729-0.596-1.494-0.685-2.293
		c-0.091-0.799-0.114-1.586-0.068-2.362c0.18-2.51,0.342-4.999,0.479-7.464c0.136-2.465,0.274-4.952,0.41-7.463
		c0.18-3.15,0.353-6.288,0.513-9.415c0.159-3.126,0.331-6.266,0.514-9.415c0.044-0.548,0.137-1.038,0.274-1.472
		c0.136-0.433,0.522-0.764,1.164-0.992c0.501-0.138,1.026-0.114,1.574,0.067c0.549,0.183,1.003,0.571,1.37,1.165
		c0.501,0.73,0.89,1.483,1.164,2.259c0.867,2.191,1.712,4.348,2.534,6.47c0.819,2.123,1.644,4.279,2.465,6.471
		c0.091,0.183,0.172,0.354,0.24,0.514C86.915,128.744,86.993,128.915,87.085,129.096"/>
	<path fill="#FFFFFF" d="M109.817,137.518c-0.092,1.325-0.182,2.716-0.274,4.176c-0.093,1.461-0.229,2.944-0.411,4.451
		c-0.093,0.731-0.229,1.45-0.411,2.157c-0.184,0.708-0.411,1.404-0.685,2.088c-1.095,3.059-3.243,4.382-6.437,3.971
		c-0.732-0.091-1.449-0.228-2.157-0.41c-0.708-0.184-1.404-0.389-2.089-0.617c-1.095-0.365-1.859-0.89-2.293-1.575
		c-0.435-0.684-0.649-1.62-0.649-2.807c0.091-2.784,0.146-5.557,0.17-8.32c0.022-2.761,0.078-5.511,0.17-8.25
		c0.045-3.013,0.091-6.026,0.136-9.039c0.045-3.012,0.091-6.025,0.136-9.038c0.045-0.182,0.07-0.365,0.07-0.547v-0.617
		c0.229-1.917,1.187-2.945,2.875-3.081c1.05-0.137,2.099-0.194,3.15-0.172c1.048,0.024,2.098,0.172,3.148,0.445
		c1.188,0.32,2.192,0.856,3.014,1.61c0.821,0.753,1.368,1.791,1.643,3.114c0.229,1.188,0.422,2.387,0.583,3.596
		c0.159,1.209,0.284,2.408,0.376,3.595c0.227,2.464,0.308,4.953,0.24,7.462C110.058,132.223,109.956,134.826,109.817,137.518
		 M104.889,131.972c0.089-1.917,0.146-3.8,0.17-5.648c0.021-1.849,0.055-3.731,0.103-5.649c0-0.686-0.059-1.357-0.17-2.02
		c-0.115-0.661-0.355-1.312-0.721-1.952c-0.411-0.822-0.992-1.277-1.746-1.37c-0.753-0.091-1.448,0.206-2.087,0.89
		c-0.547,0.457-0.889,1.026-1.025,1.711c-0.23,1.051-0.299,2.123-0.208,3.218c0.182,2.557,0.331,5.113,0.445,7.669
		c0.115,2.556,0.104,5.135-0.034,7.738c-0.089,1.917-0.203,3.799-0.342,5.648c-0.136,1.849-0.25,3.708-0.342,5.58
		c-0.046,0.411-0.023,0.685,0.069,0.822c0.091,0.137,0.318,0.229,0.685,0.273c0.548,0.093,1.096,0.024,1.643-0.205
		c1.37-0.502,2.259-1.461,2.671-2.876c0.318-1.277,0.524-2.647,0.617-4.108c0.089-1.597,0.158-3.206,0.205-4.827
		C104.863,135.248,104.889,133.615,104.889,131.972"/>
	<path fill="#FFFFFF" d="M122.074,127.179c1.003,1.324,1.974,2.283,2.91,2.875c0.935,0.594,1.79,1.164,2.568,1.711
		c0.775,0.549,1.439,1.267,1.984,2.157c0.549,0.89,0.935,2.294,1.166,4.211c0.227,1.917,0.17,3.8-0.172,5.648
		c-0.343,1.849-0.855,3.687-1.539,5.511c-0.23,0.64-0.55,1.257-0.961,1.849c-0.411,0.594-0.867,1.141-1.37,1.644
		c-0.32,0.366-0.798,0.651-1.438,0.856c-0.639,0.205-1.312,0.318-2.019,0.342c-0.709,0.023-1.404-0.012-2.088-0.103
		c-0.685-0.092-1.233-0.273-1.644-0.547c-1.096-0.685-1.985-1.586-2.67-2.705c-0.685-1.119-1.209-2.362-1.576-3.731
		c-0.365-1.371-0.626-2.808-0.787-4.314c-0.159-1.506-0.307-2.988-0.445-4.45c-0.045-0.502-0.022-0.981,0.068-1.439
		c0.091-0.455,0.182-0.912,0.274-1.369c0.136-0.456,0.41-0.935,0.821-1.438c0.912-0.912,1.964-1.096,3.15-0.548
		c0.548,0.229,0.902,0.502,1.061,0.822c0.159,0.32,0.17,0.821,0.034,1.506c-0.685,3.423-0.32,6.733,1.097,9.928
		c0.729,1.507,1.3,2.34,1.71,2.499c0.411,0.161,0.73-0.08,0.959-0.72c0.227-0.638,0.41-1.506,0.547-2.601
		c0.138-1.096,0.297-2.146,0.48-3.15c0.091-0.684,0.17-1.369,0.239-2.055c0.068-0.684,0.148-1.369,0.24-2.054
		c0.044-2.191-0.914-3.902-2.876-5.135c-0.229-0.137-0.422-0.274-0.583-0.411c-0.159-0.137-0.354-0.25-0.581-0.343
		c-3.333-1.962-5.388-4.746-6.164-8.353c-0.456-2.191-0.456-4.302,0-6.333c0.456-2.03,1.507-3.914,3.15-5.648
		c0.73-0.775,1.597-1.46,2.602-2.055c2.283-1.278,4.427-1.118,6.437,0.48c0.823,0.639,1.508,1.392,2.055,2.259
		c0.685,1.051,1.231,2.272,1.642,3.664c0.413,1.392,0.641,2.819,0.687,4.279c0.045,1.462-0.094,2.922-0.411,4.382
		c-0.321,1.461-0.821,2.808-1.507,4.041c-0.64-0.32-1.164-0.525-1.574-0.617c-0.411-0.092-0.744-0.228-0.994-0.411
		c-0.251-0.183-0.423-0.468-0.513-0.856c-0.092-0.388-0.092-1.038,0-1.951c0-0.228,0.01-0.765,0.034-1.609
		c0.022-0.844,0.032-1.791,0.032-2.842c0-1.049-0.057-2.098-0.17-3.15c-0.113-1.048-0.297-1.927-0.547-2.636
		c-0.251-0.707-0.617-1.14-1.095-1.301c-0.479-0.16-1.108,0.149-1.884,0.924c-0.73,0.731-1.266,1.677-1.608,2.842
		c-0.342,1.164-0.514,2.374-0.514,3.629s0.161,2.499,0.48,3.732C121.09,125.331,121.525,126.357,122.074,127.179"/>
</g>
</svg>
